PathFileType	4	(X/Y/Z)	C:/Users/beibeiliu/ov580/test_trc/User1\sequence.26_training_dense_right.trc
DataRate	CameraRate	NumFrames	NumMarkers	Units	OrigDataRate	OrigDataStartFrame	OrigNumFrames
120	120	20	19	mm	120	248	330
Frame#	Time	ThumbCMC			ThumbMCP			ThumbIP			ThumbTip			IndexMCP			IndexPIP			IndexTip			MiddleMCP			MiddlePIP			MiddleTip			RingMCP			RingPIP			RingTip			PinkyMCP			PinkyPIP			PinkyTip			BackHand1			BackHand2			BackHand3	
		X0	Y0	Z0	X1	Y1	Z1	X2	Y2	Z2	X3	Y3	Z3	X4	Y4	Z4	X5	Y5	Z5	X6	Y6	Z6	X7	Y7	Z7	X8	Y8	Z8	X9	Y9	Z9	X10	Y10	Z10	X11	Y11	Z11	X12	Y12	Z12	X13	Y13	Z13	X14	Y14	Z14	X15	Y15	Z15	X16	Y16	Z16	X17	Y17	Z17	X18	Y18	Z18	
247	2.05833	84.1737	-37.5696	59.9522	77.9678	-65.4258	27.5894	92.7697	-83.7762	7.90552	116.5	-102.834	1.41249	125.84	-24.676	-11.9293	137.286	-26.9142	-37.1721	149.94	-27.4056	-59.5728	153.011	-32.7075	-12.97	163.015	-34.688	-39.3456	172.877	-36.6268	-65.3274	159.821	-68.3884	-7.81901	143.635	-96.0112	-11.4	124.367	-96.9272	16.7098	160.225	-91.1694	20.1412	133.764	-101.68	22.7737	116.777	-88.4461	46.6583	158.147	-39.8661	53.8155	148.741	-33.0612	84.7694	124.17	-16.8939	57.1346	
248	2.06667	88.2814	-35.3886	59.7786	76.7889	-62.2699	30.435	90.6516	-83.4057	8.32366	111.845	-106.372	4.57655	131.663	-29.3287	-13.2503	143.347	-34.1994	-34.1413	156.307	-37.9768	-55.6555	160.264	-42.3959	-13.8241	166.455	-44.4159	-38.9058	178.377	-49.828	-64.2848	156.83	-73.7103	-3.46783	138.566	-98.3603	-12.2058	118.713	-98.7306	18.8547	156.889	-95.3982	23.4497	129.481	-105.41	26.1575	111.775	-87.1345	49.9984	160.149	-43.7503	53.1532	155.919	-37.2019	87.6478	130.044	-21.3759	57.3456	
249	2.075	94.0739	-31.5031	60.7134	79.3948	-59.1001	28.2169	87.4991	-80.8511	11.7578	107.366	-107.51	7.85162	138.48	-35.9444	-14.1855	146.288	-40.4304	-35.8143	159.58	-48.6389	-54.4261	163.106	-51.2875	-13.5015	168.398	-54.9836	-36.7364	181.759	-65.5434	-63.9773	154.37	-83.59	-4.84349	131.6	-106.139	-7.93006	112.794	-101.189	20.4692	148.974	-100.553	23.8231	123.277	-111.618	30.0085	108.451	-85.1899	49.0979	160.208	-48.6092	51.861	155.455	-40.7037	88.2658	138.156	-23.4265	58.876	
250	2.08333	97.2749	-27.3456	54.7126	75.5421	-53.4282	30.3967	80.8502	-78.9756	10.3647	96.893	-104.474	10.4226	139.445	-39.6266	-17.3249	148.313	-49.4775	-33.6185	157.283	-57.2231	-54.7777	160.063	-58.6363	-11.4163	169.038	-68.1463	-37.7444	175.924	-79.7224	-64.1138	151.223	-90.6942	0.958359	124.139	-110.138	-6.25042	105.528	-100.324	23.5643	142.319	-107.207	26.4061	111.738	-110.193	29.8734	102.328	-85.5438	48.2749	160.948	-55.2539	53.2477	156.959	-45.8659	83.8137	140.538	-24.8706	53.166	
251	2.09167	101.941	-20.8682	54.9307	78.4108	-46.1704	33.4408	76.2704	-71.2393	15.9578	86.7031	-102.324	10.4661	139.352	-41.7499	-13.458	146.345	-52.6976	-38.8422	157.374	-68.4877	-58.7008	156.561	-63.1708	-12.6198	162.108	-76.9671	-40.3851	164.786	-88.6673	-65.5617	140.111	-93.9835	-1.49002	110.399	-109.727	-3.41954	98.0389	-92.5983	25.0375	132.107	-111.428	26.4777	102.133	-106.242	29.4249	94.7658	-79.5338	47.2103	161.113	-62.3956	49.2121	159.992	-54.8214	83.2615	146.153	-29.0061	52.5068	
252	2.1	108.177	-18.4732	54.3266	79.296	-40.2358	30.0248	72.4443	-65.2599	15.5932	75.0907	-92.4634	14.4389	142.172	-50.7061	-13.0669	145.106	-61.8186	-38.2864	151.379	-74.025	-60.2087	152.81	-72.1063	-14.035	154.794	-85.9004	-38.0612	151.831	-100.306	-69.0002	129.004	-97.0815	-0.112346	96.4485	-104.268	0.535127	93.0425	-83.6768	29.8625	120.772	-107.536	24.4922	91.7021	-103.334	30.6733	89.6087	-76.4597	50.2347	159.606	-71.1257	50.7348	161.086	-60.1569	83.7307	152.337	-34.384	52.7104	
253	2.10833	115.836	-16.4195	50.667	83.7452	-33.0791	34.6523	70.3835	-59.1045	14.0514	65.9479	-87.1972	10.9699	140.94	-50.7637	-17.3476	141.141	-64.1901	-39.8119	142.215	-77.545	-58.1942	146.54	-75.1429	-16.2112	144.836	-92.1988	-43.0213	139.103	-104.089	-69.5908	117.694	-98.8775	0.744886	86.8703	-94.8433	4.56302	90.7524	-74.4197	33.2496	111.512	-108.089	28.15	85.3297	-96.3429	30.1051	87.5075	-68.8081	50.689	154.461	-75.9936	48.1802	162.636	-60.3453	80.1476	157.034	-37.952	51.0829	
254	2.11667	124.005	-15.3761	52.9397	89.0228	-28.6208	34.0323	74.297	-49.476	17.7524	67.5695	-77.1105	14.271	139.267	-57.5726	-20.431	135.158	-68.9863	-38.7928	133.507	-82.9168	-64.795	140.517	-77.9468	-17.2179	133.853	-92.2434	-44.028	123.588	-107.086	-70.4724	109.148	-95.1086	1.51032	78.3047	-84.6799	8.90213	91.6453	-66.8788	36.5936	102.966	-105.947	29.2398	81.376	-83.2734	33.2074	91.381	-62.5193	50.6086	154.001	-79.9667	49.5188	163.509	-64.1343	75.416	160.188	-39.031	48.5633	
255	2.125	131.557	-11.1091	52.2208	93.7596	-21.4956	30.7826	73.4954	-39.782	16.3182	61.7309	-67.964	12.9859	136.877	-54.7063	-19.1139	129.989	-67.837	-42.9963	122.5	-83.8841	-65.3287	133.942	-80.4751	-19.847	123.738	-92.0509	-43.0547	111.244	-103.002	-65.4238	105.392	-90.7355	4.24424	73.7709	-76.361	14.1676	89.2891	-61.3285	36.8795	97.159	-100.542	31.1521	77.7455	-77.3567	37.9709	93.0777	-55.2833	52.2135	150.424	-80.8041	44.4822	165.434	-66.8482	77.1653	162.126	-41.0726	43.7541	
256	2.13333	138.776	-13.5237	47.134	100.565	-16.476	32.2164	79.8882	-33.6982	18.1782	65.7856	-54.5666	16.7307	132.602	-57.2258	-21.5647	124.515	-65.943	-42.3373	112.073	-80.6523	-62.2428	128.765	-81.5038	-16.835	114.641	-91.4178	-41.6298	99.6169	-99.8089	-66.8245	97.8239	-83.9573	1.43778	71.9524	-72.6257	15.946	88.3916	-55.2677	39.3804	90.6626	-92.9435	32.0471	79.1077	-67.4974	40.3853	94.7993	-48.9951	54.7125	150.975	-79.3637	42.6243	167.575	-69.9384	71.0848	167.319	-47.329	44.1852	
257	2.14167	146.823	-10.0563	48.1157	108.498	-12.702	33.9814	83.548	-24.6464	21.2126	67.0524	-47.7251	17.8089	130.732	-53.9917	-24.7315	115.565	-68.3996	-43.7224	102.825	-78.1543	-60.7913	124.591	-77.7594	-21.0166	108.375	-86.246	-40.4422	89.6528	-97.1141	-63.34	96.0987	-80.7636	3.80842	71.178	-63.4361	18.3716	89.7888	-49.036	40.7703	90.6702	-87.6271	35.1216	78.233	-64.1064	43.5068	101.69	-44.0896	58.7667	147.874	-82.7981	40.3985	168.785	-74.6104	69.3385	169.12	-49.1007	41.5948	
258	2.15	153.311	-12.3332	48.8659	112.308	-6.16586	31.8484	88.301	-19.6915	22.5246	66.926	-40.3415	20.8243	130.859	-54.9889	-21.3004	112.847	-65.3323	-42.9206	97.1081	-74.1621	-55.9415	120.061	-78.9493	-17.3325	102.652	-83.0539	-42.7333	82.0035	-92.0647	-61.1915	90.8059	-79.6989	7.97597	71.0543	-56.0992	21.3152	94.7104	-45.6257	45.1746	93.7736	-83.2882	36.8038	79.3651	-57.3429	49.5104	106.383	-39.9895	58.483	150.762	-82.8961	40.2661	168.096	-78.8589	69.0547	172.905	-51.0949	36.9352	
259	2.15833	160.788	-13.1602	47.3618	121.267	-7.01692	35.2264	95.5714	-16.1489	25.1507	72.4417	-30.5702	24.4546	130.494	-51.1005	-24.0187	112.2	-58.41	-41.4035	92.7711	-66.8485	-58.4916	116.097	-76.7125	-18.3015	99.8651	-76.634	-39.4374	78.3664	-86.5624	-54.2483	95.9369	-73.0378	8.64534	73.6068	-53.4375	22.2645	95.2871	-39.2882	44.9972	89.6581	-79.3676	39.7391	84.3217	-50.4179	51.7416	108.651	-36.054	61.2885	149.072	-85.7643	39.3108	171.316	-80.2427	71.0791	176.711	-50.7412	37.8221	
260	2.16667	167.819	-13.3925	49.5191	130.543	-3.03776	40.118	100.905	-9.40065	28.014	74.4685	-23.6839	26.7373	128.533	-51.5244	-20.1232	110.982	-56.6025	-35.455	88.3612	-60.344	-53.6353	118.589	-71.4837	-13.2237	97.8731	-73.6504	-34.188	74.0752	-77.0795	-51.9094	95.0675	-68.3993	12.1269	76.3541	-44.726	26.8908	100.163	-36.2276	50.5762	90.9477	-74.9958	42.9723	86.4739	-48.8943	54.6481	113.211	-35.36	65.3518	151.012	-84.2428	43.4628	175.047	-81.0225	68.5346	176.836	-57.0425	34.9327	
261	2.175	174.817	-17.8759	51.8928	135.495	-2.88579	40.7489	106.089	-10.4038	31.3853	83.6912	-23.6598	32.8917	130.727	-46.6065	-16.4928	113.014	-47.4979	-33.9049	86.5726	-52.1069	-45.8907	116.886	-66.7537	-13.9374	93.3355	-68.5033	-29.2233	67.942	-67.3296	-48.2654	94.2818	-65.0674	15.4706	77.4766	-43.4434	31.0333	104.795	-32.3134	53.661	97.6441	-72.858	45.9827	89.8025	-44.281	59.1901	121.789	-31.9497	64.8738	151.421	-84.5637	41.7176	178.063	-81.4806	66.1064	180.325	-56.886	37.1532	
262	2.18333	179.557	-17.9278	51.0029	144.866	1.29882	49.0248	114.211	-0.201171	39.5513	88.3608	-14.7209	41.9399	130.051	-41.9826	-14.5062	108.776	-43.9625	-26.5167	83.9417	-44.087	-38.474	114.74	-63.9126	-6.92426	89.896	-61.434	-25.5971	64.8905	-57.5681	-37.2195	98.5405	-62.6654	19.7203	81.5987	-36.0316	34.0425	105.34	-29.9875	58.8444	97.7884	-66.7293	51.5032	93.9155	-39.8016	62.3593	121.677	-28.3007	70.6351	153.012	-84.8404	47.3854	179.853	-87.301	66.5075	181.489	-60.107	35.4854	
263	2.19167	183.783	-19.2645	54.0294	149.98	1.76237	52.9248	117.248	-1.20051	46.2309	92.6456	-11.3062	51.4654	131.387	-37.3189	-8.84403	109.286	-34.6354	-23.0961	85.9691	-33.1207	-29.3646	116.294	-58.9668	0.0894038	91.6652	-53.8332	-15.8972	63.3684	-44.6909	-29.8315	99.4608	-58.2822	23.7018	80.8799	-34.3766	40.1472	103.793	-25.8753	62.9128	99.9899	-64.0941	58.1144	99.0579	-35.5523	69.686	127.88	-23.727	74.6174	154.717	-82.0152	48.3326	182.357	-87.7325	68.2583	185.108	-58.6155	41.2071	
264	2.2	191.804	-17.4544	60.9343	155.824	2.43372	61.9052	120.988	1.89182	55.9075	99.6199	-8.89715	63.0003	129.784	-32.7912	-1.59125	109.508	-27.1704	-13.2521	82.687	-25.3324	-17.6939	114.334	-53.6749	5.72767	88.4255	-47.2712	-8.23702	58.4031	-36.1432	-17.7469	100.177	-56.6441	32.4994	84.7438	-27.5038	45.2351	109.573	-22.2567	70.9849	103.173	-59.2189	63.3193	103.115	-31.2686	76.2227	136.085	-24.1153	79.4922	154.529	-82.4906	54.152	181.913	-86.1655	69.0744	186.478	-58.5946	43.5965	
265	2.20833	189.569	-20.7628	62.6836	155.764	3.47068	66.3209	122.97	5.61415	63.536	96.7161	-4.33504	70.05	129.728	-29.799	5.92846	107.276	-23.542	-5.25878	80.2324	-17.9546	-11.649	111.487	-47.6552	9.23302	88.1633	-39.075	-0.14716	58.0269	-30.0519	-5.60647	100.279	-49.5229	37.9385	85.1108	-24.2437	57.4668	107.618	-17.1576	76.4063	101.471	-56.8843	72.3936	104.023	-31.3535	82.6851	137.467	-24.4075	89.5663	151.242	-79.0717	53.9004	185.969	-88.0241	72.1081	187.225	-57.7346	43.8889	
266	2.21667	190.87	-16.0364	63.8075	158.062	3.50309	71.9842	128.249	4.97475	69.6253	97.641	0.927127	75.5472	131.781	-27.0623	10.8812	104.312	-17.7607	-2.23193	79.6779	-14.8586	-5.27346	110.331	-43.7689	13.7349	86.2898	-33.4123	2.63088	60.3797	-21.6294	-3.54726	101.485	-45.2068	40.657	85.7313	-25.5533	61.796	111.126	-15.3271	84.0118	106.921	-57.1926	71.151	106.147	-31.2896	90.7726	139.734	-20.3968	89.9478	154.618	-78.798	54.1163	182.113	-85.7462	70.4518	186.667	-56.7558	47.4846	
